<svg xmlns="http://www.w3.org/2000/svg" height="800" width="1200" viewBox="-13.386 -10.2425 116.012 61.455"><path d="M44.625 0L21.5775 9.8725H7.2012V13.9H0v27.07h89.24V13.9h-7.1975V9.8725H67.6712z" fill="#004990"/><path d="M65.9061 17.072l-.001 4.3763 2.8313.005.59-4.38-3.42-.001zm15.3084 3.792c.1825 0 .3475-.0137.3475-.2362 0-.175-.1625-.2075-.3125-.2075h-.295v.4437zm-.26.8025h-.2162v-1.43h.545c.3362 0 .5037.125.5037.4075 0 .2563-.1588.3675-.3688.3938l.4063.6287h-.2425l-.3775-.62h-.25zm.2625.32c.5613 0 1.0038-.4387 1.0038-1.0375 0-.5875-.4425-1.03-1.0038-1.03-.5687 0-1.0112.4425-1.0112 1.03 0 .5988.4425 1.0375 1.0112 1.0375m-1.2612-1.0375c0-.7125.5775-1.2375 1.2612-1.2375.6763 0 1.255.525 1.255 1.2375 0 .7175-.5787 1.245-1.255 1.245-.6837 0-1.2612-.5275-1.2612-1.245M14.2353 31.9853V17.0715h-4.0788v18.465h10.39v-3.5512zm41.0606 3.5518h9.7087V31.981h-5.61v-2.3175h5.61v-3.4238h-5.61v-2.33h5.61v-3.5712H55.296v.0175zM29.8689 23.91h-3.5875v8.0563h3.5875zm4.0862 9.6863c0 1.0712-.8687 1.9412-1.9412 1.9412H24.135c-1.0712 0-1.94-.87-1.94-1.9412V22.28c0-1.0725.8688-1.9412 1.94-1.9412h7.8788c1.0725 0 1.9412.8687 1.9412 1.9412zM48.877 20.3391v11.6463h-2.4625V20.339H42.827v11.6463h-2.4625V20.339h-4.0862v13.2563c0 1.0725.8687 1.9425 1.9412 1.9425h4.83c.8138 0 1.5713-.5625 1.5713-1.3763 0 .8138.7575 1.3763 1.5712 1.3763h4.8313c1.0712 0 1.94-.87 1.94-1.9425V20.339zm30.4504 9.4547l.001.001-.025-.0525c-.0162-.0325-.0325-.0638-.0487-.0962l-.025-.05c-.6463-1.2963-2.0938-2.3788-4.4238-3.3113l-.0825-.0312c-.4612-.1812-1.865-.73-2.0212-1.6225-.0425-.25.0588-.6425.3375-.8812.2937-.2988.7437-.4525 1.3375-.4525.95 0 2.03.3887 2.59.62 1.1787.4887 2.2125.925 2.2225.9312l.1025.0425v-3.3175l-.0337-.0213c-.0225-.015-2.2513-1.42-4.5025-1.7425a8.8204 8.8204 0 00-.7613-.0325c-2.0725 0-3.6425.7525-4.665 2.2375-.8587 1.22-.9537 3.1513-.2237 4.5925.9387 1.6288 2.4437 2.3088 3.9 2.9675.6.27 1.2212.5525 1.8025.8975l.006.004c.6575.395.9925.9988.8537 1.535-.1437.5563-.78.93-1.5837.93-.11 0-.2213-.006-.33-.0212l-.0388-.005c-1.5463-.215-4.6813-1.3825-4.7125-1.395l-.1-.0375v3.6375l.0513.0175c.0288.01 3.0637 1.015 5.7575 1.015h.001c1.47 0 2.58-.2962 3.2975-.8787.0175-.0125 1.6637-1.3363 1.7362-3.5875.02-.6225-.1212-1.26-.42-1.8925" fill="#fff"/></svg>